<svg viewBox="0 0 30 30" xmlns="http://www.w3.org/2000/svg" xmlns:xlink="http://www.w3.org/1999/xlink" width="30.000000" height="30.000000" fill="none">
	<rect id="entypo-social:linkedin-with-circle" width="30.000000" height="30.000000" x="0.000000" y="0.000000" fill="rgb(255,255,255)" fill-opacity="0" />
	<path id="Vector" d="M15 0.600098C7.04698 0.600098 0.599976 7.0471 0.599976 15.0001C0.599976 22.9531 7.04698 29.4001 15 29.4001C22.953 29.4001 29.4 22.9531 29.4 15.0001C29.4 7.0471 22.953 0.600098 15 0.600098ZM11.475 20.9686L8.55898 20.9686L8.55898 11.5846L11.475 11.5846L11.475 20.9686ZM9.99898 10.4326C9.07798 10.4326 8.48248 9.7801 8.48248 8.9731C8.48248 8.1496 9.09597 7.5166 10.0365 7.5166C10.977 7.5166 11.553 8.1496 11.571 8.9731C11.571 9.7801 10.977 10.4326 9.99898 10.4326ZM22.125 20.9686L19.209 20.9686L19.209 15.7681C19.209 14.5576 18.786 13.7356 17.7315 13.7356C16.926 13.7356 16.4475 14.2921 16.236 14.8276C16.158 15.0181 16.1385 15.2881 16.1385 15.5566L16.1385 20.9671L13.221 20.9671L13.221 14.5771C13.221 13.4056 13.1835 12.4261 13.1445 11.5831L15.678 11.5831L15.8115 12.8866L15.87 12.8866C16.254 12.2746 17.1945 11.3716 18.768 11.3716C20.6865 11.3716 22.125 12.6571 22.125 15.4201L22.125 20.9686Z" fill="rgb(166.812,166.812,166.812)" fill-rule="nonzero" />
</svg>
