<svg viewBox="0 0 97 59" xmlns="http://www.w3.org/2000/svg" xmlns:xlink="http://www.w3.org/1999/xlink" width="97.000000" height="59.000000" fill="none">
	<rect id="logo 1" width="97.000000" height="59.000000" x="0.000000" y="0.000000" fill="rgb(255,255,255)" fill-opacity="0" />
	<path id="Vector" d="M12.5581 0L12.5581 3.83066C11.5028 3.83066 10.6796 3.98157 10.0882 4.28338C9.49679 4.57357 9.24169 5.15977 9.32287 6.04199L9.86206 11.1785C10.0012 12.4786 9.85626 13.5292 9.42722 14.3301C9.00978 15.131 8.36623 15.7464 7.49655 16.1758C6.63848 16.5938 5.62386 16.8897 4.45271 17.0638C5.69343 17.2495 6.74284 17.5514 7.60092 17.9693C8.45899 18.3871 9.08516 18.9907 9.47941 19.7801C9.87366 20.5695 10.0012 21.6258 9.86206 22.9492L9.32287 28.0857C9.24169 28.9679 9.49679 29.5541 10.0882 29.8443C10.6796 30.146 11.5028 30.297 12.5581 30.297L12.5581 34.1277C9.35765 34.1277 7.1081 33.6401 5.80939 32.6651C4.52229 31.7016 4.00048 30.0475 4.24398 27.7026L4.76579 22.7227C4.85856 21.8406 4.70782 21.1499 4.31357 20.6507C3.93091 20.1516 3.36272 19.8034 2.60901 19.6059C1.85529 19.3971 0.985626 19.2926 0 19.2926L0 14.8351C0.97403 14.8351 1.8379 14.7364 2.59162 14.5391C3.34533 14.3301 3.91932 13.9761 4.31357 13.477C4.70782 12.9778 4.85856 12.2871 4.76579 11.4049L4.24398 6.45987C3.98889 4.06861 4.51068 2.39706 5.80939 1.4452C7.1081 0.481734 9.35765 0 12.5581 0Z" fill="rgb(66,68,110)" fill-rule="nonzero" />
	<path id="Vector" d="M27.633 4.50977C30.5087 4.50977 32.6771 5.62414 34.1381 7.85288C35.6108 10.07 36.3471 13.1636 36.3471 17.1335C36.3471 21.115 35.6108 24.2318 34.1381 26.4838C32.6771 28.7242 30.5087 29.8443 27.633 29.8443C24.7342 29.8443 22.5541 28.7242 21.0931 26.4838C19.6436 24.2318 18.9189 21.115 18.9189 17.1335C18.9189 13.1636 19.6436 10.07 21.0931 7.85288C22.5541 5.62414 24.7342 4.50977 27.633 4.50977ZM27.633 8.49713C26.4039 8.49713 25.5052 9.15879 24.937 10.4821C24.3689 11.7938 24.0847 14.0109 24.0847 17.1335C24.0847 18.1551 24.1022 19.0663 24.1369 19.8672C24.1718 20.6566 24.224 21.3589 24.2935 21.9741L30.1724 9.66374C29.8942 9.22264 29.5463 8.92083 29.1289 8.75831C28.7231 8.5842 28.2244 8.49713 27.633 8.49713ZM31.1465 17.1335C31.1465 15.7986 31.1175 14.6726 31.0595 13.7555L25.511 25.2302C25.7662 25.4739 26.0676 25.6422 26.4154 25.7351C26.775 25.8279 27.1808 25.8744 27.633 25.8744C28.4564 25.8744 29.1231 25.5958 29.6333 25.0387C30.1551 24.4815 30.5377 23.5644 30.7812 22.2875C31.0248 20.999 31.1465 19.281 31.1465 17.1335Z" fill="rgb(66,68,110)" fill-rule="nonzero" />
	<path id="Vector" d="M48.5002 4.50977C51.3759 4.50977 53.5443 5.62414 55.0053 7.85288C56.478 10.07 57.2142 13.1636 57.2142 17.1335C57.2142 21.115 56.478 24.2318 55.0053 26.4838C53.5443 28.7242 51.3759 29.8443 48.5002 29.8443C45.6012 29.8443 43.4213 28.7242 41.9603 26.4838C40.5108 24.2318 39.7861 21.115 39.7861 17.1335C39.7861 13.1636 40.5108 10.07 41.9603 7.85288C43.4213 5.62414 45.6012 4.50977 48.5002 4.50977ZM48.5002 8.49713C47.2711 8.49713 46.3724 9.15879 45.8042 10.4821C45.2361 11.7938 44.9519 14.0109 44.9519 17.1335C44.9519 18.1551 44.9694 19.0663 45.0041 19.8672C45.0389 20.6566 45.0911 21.3589 45.1607 21.9741L51.0396 9.66374C50.7613 9.22264 50.4134 8.92083 49.9961 8.75831C49.5901 8.5842 49.0915 8.49713 48.5002 8.49713ZM52.0137 17.1335C52.0137 15.7986 51.9847 14.6726 51.9267 13.7555L46.3782 25.2302C46.6332 25.4739 46.9348 25.6422 47.2826 25.7351C47.6422 25.8279 48.048 25.8744 48.5002 25.8744C49.3234 25.8744 49.9902 25.5958 50.5005 25.0387C51.0222 24.4815 51.4049 23.5644 51.6484 22.2875C51.8919 20.999 52.0137 19.281 52.0137 17.1335Z" fill="rgb(66,68,110)" fill-rule="nonzero" />
	<path id="Vector" d="M68.1146 29.8095L62.8966 28.1902L71.889 9.26321L61.2964 9.26321L61.2964 5.11914L77.4549 5.11914L77.4549 8.84532L68.1146 29.8095Z" fill="rgb(66,68,110)" fill-rule="nonzero" />
	<path id="Vector" d="M84.4419 0C87.6423 0 89.886 0.481734 91.1732 1.4452C92.4719 2.40867 92.9995 4.06862 92.756 6.42505L92.2342 11.4049C92.1414 12.2871 92.2921 12.9778 92.6864 13.477C93.0807 13.9761 93.6488 14.3301 94.3909 14.5391C95.1447 14.7364 96.0144 14.8351 97 14.8351L97 19.2926C96.0259 19.2926 95.1621 19.3971 94.4083 19.6059C93.6547 19.8034 93.0807 20.1516 92.6864 20.6507C92.2921 21.1499 92.1414 21.8406 92.2342 22.7227L92.756 27.6678C93.0227 30.0475 92.5009 31.719 91.1905 32.6824C89.8918 33.646 87.6423 34.1277 84.4419 34.1277L84.4419 30.297C85.5088 30.297 86.3378 30.146 86.9291 29.8443C87.5206 29.5541 87.7699 28.9679 87.6772 28.0857L87.1379 22.9492C86.9988 21.6374 87.1379 20.5868 87.5553 19.7976C87.9844 18.9965 88.6338 18.3871 89.5034 17.9693C90.373 17.5397 91.3935 17.238 92.5646 17.0638C91.3239 16.8781 90.2688 16.5763 89.3991 16.1584C88.5409 15.7405 87.9149 15.1369 87.5206 14.3476C87.1263 13.5466 86.9988 12.4903 87.1379 11.1785L87.6772 6.04199C87.7699 5.15977 87.5147 4.57357 86.9118 4.28338C86.3204 3.98157 85.4971 3.83066 84.4419 3.83066L84.4419 0Z" fill="rgb(66,68,110)" fill-rule="nonzero" />
	<path id="Vector" d="M12.2746 42.1621C13.2417 42.1621 14.0209 42.4024 14.6122 42.883C15.2037 43.3635 15.635 44.0426 15.9064 44.9202C16.1846 45.7977 16.3238 46.839 16.3238 48.0439C16.3238 49.1862 16.1568 50.2065 15.8229 51.1049C15.4889 51.9964 15.0054 52.6999 14.3723 53.2153C13.7391 53.7238 12.9703 53.978 12.0659 53.978C10.9875 53.978 10.1108 53.5914 9.43597 52.8182L9.43597 57.9061L6.13818 58.2509L6.13818 42.5278L9.06028 42.5278L9.20639 43.771C9.65862 43.1929 10.1526 42.782 10.6883 42.5382C11.224 42.2875 11.7528 42.1621 12.2746 42.1621ZM11.2519 44.5964C10.8692 44.5964 10.5318 44.7113 10.2396 44.9411C9.94735 45.1709 9.67948 45.4843 9.43597 45.8813L9.43597 50.5617C9.66557 50.903 9.9056 51.1537 10.1561 51.3139C10.4135 51.474 10.7161 51.5542 11.064 51.5542C11.6484 51.5542 12.1041 51.2895 12.4312 50.7601C12.7582 50.2238 12.9216 49.3325 12.9216 48.0857C12.9216 47.1663 12.8555 46.456 12.7233 45.9545C12.5912 45.4461 12.3999 45.0943 12.1493 44.8993C11.8989 44.6973 11.5997 44.5964 11.2519 44.5964Z" fill="rgb(66,68,110)" fill-rule="nonzero" />
	<path id="Vector" d="M27.9881 50.4259C27.9881 50.8437 28.0437 51.1467 28.1551 51.3348C28.2733 51.5228 28.4612 51.6657 28.7186 51.7631L28.0403 53.9362C27.3862 53.8735 26.8332 53.7307 26.3809 53.5078C25.9356 53.278 25.5843 52.9332 25.3269 52.4736C24.9025 52.982 24.3598 53.3615 23.6989 53.6123C23.0379 53.856 22.3631 53.978 21.6743 53.978C20.5332 53.978 19.6218 53.6541 18.94 53.0063C18.2651 52.3517 17.9277 51.5124 17.9277 50.4886C17.9277 49.2837 18.3974 48.3538 19.3366 47.6991C20.2827 47.0445 21.6116 46.7172 23.3231 46.7172L24.8155 46.7172L24.8155 46.2992C24.8155 45.164 24.085 44.5964 22.6239 44.5964C22.2692 44.5964 21.8134 44.6486 21.2568 44.7531C20.7002 44.8505 20.1436 44.9932 19.587 45.1813L18.8252 42.9875C19.5419 42.7159 20.2863 42.5103 21.0585 42.3711C21.8377 42.2318 22.5335 42.1621 23.1457 42.1621C24.7946 42.1621 26.0121 42.4999 26.7983 43.1754C27.5915 43.8441 27.9881 44.8122 27.9881 46.0798L27.9881 50.4259ZM22.8117 51.6169C23.1666 51.6169 23.5389 51.5124 23.9285 51.3034C24.3181 51.0876 24.6137 50.7846 24.8155 50.3946L24.8155 48.5977L24.0015 48.5977C23.0831 48.5977 22.4083 48.7404 21.9769 49.0259C21.5456 49.3046 21.3299 49.7155 21.3299 50.2588C21.3299 50.6836 21.4585 51.0179 21.716 51.2616C21.9804 51.4985 22.3457 51.6169 22.8117 51.6169Z" fill="rgb(66,68,110)" fill-rule="nonzero" />
	<path id="Vector" d="M41.6355 42.5278L37.9412 53.6228L34.059 53.6228L30.3228 42.5278L33.8815 42.5278L36.0418 51.0945L38.2959 42.5278L41.6355 42.5278Z" fill="rgb(66,68,110)" fill-rule="nonzero" />
	<path id="Vector" d="M53.0286 50.4259C53.0286 50.8437 53.0843 51.1467 53.1956 51.3348C53.3139 51.5228 53.5017 51.6657 53.7591 51.7631L53.0808 53.9362C52.4267 53.8735 51.8737 53.7307 51.4215 53.5078C50.9762 53.278 50.6249 52.9332 50.3674 52.4736C49.9431 52.982 49.4003 53.3615 48.7394 53.6123C48.0784 53.856 47.4036 53.978 46.7148 53.978C45.5738 53.978 44.6623 53.6541 43.9805 53.0063C43.3057 52.3517 42.9683 51.5124 42.9683 50.4886C42.9683 49.2837 43.4379 48.3538 44.3771 47.6991C45.3233 47.0445 46.6522 46.7172 48.3637 46.7172L49.856 46.7172L49.856 46.2992C49.856 45.164 49.1255 44.5964 47.6645 44.5964C47.3097 44.5964 46.8539 44.6486 46.2973 44.7531C45.7407 44.8505 45.1842 44.9932 44.6276 45.1813L43.8658 42.9875C44.5824 42.7159 45.3268 42.5103 46.099 42.3711C46.8783 42.2318 47.574 42.1621 48.1862 42.1621C49.8351 42.1621 51.0527 42.4999 51.8388 43.1754C52.632 43.8441 53.0286 44.8122 53.0286 46.0798L53.0286 50.4259ZM47.8523 51.6169C48.2071 51.6169 48.5794 51.5124 48.969 51.3034C49.3586 51.0876 49.6543 50.7846 49.856 50.3946L49.856 48.5977L49.0421 48.5977C48.1236 48.5977 47.4488 48.7404 47.0175 49.0259C46.5861 49.3046 46.3704 49.7155 46.3704 50.2588C46.3704 50.6836 46.4992 51.0179 46.7565 51.2616C47.0209 51.4985 47.3862 51.6169 47.8523 51.6169Z" fill="rgb(66,68,110)" fill-rule="nonzero" />
	<path id="Vector" d="M56.2188 53.6227L56.2188 42.5278L59.0992 42.5278L59.3288 43.8128C59.8227 43.2556 60.3444 42.8412 60.8941 42.5696C61.4437 42.2979 62.0699 42.1621 62.7726 42.1621C63.7188 42.1621 64.4633 42.4511 65.006 43.0293C65.5486 43.6074 65.8199 44.4222 65.8199 45.4739L65.8199 53.6227L62.5222 53.6227L62.5222 46.4246C62.5222 45.7421 62.4457 45.2685 62.2925 45.0037C62.1464 44.7322 61.8682 44.5964 61.4576 44.5964C61.1098 44.5964 60.7759 44.7077 60.4558 44.9307C60.1427 45.1535 59.8296 45.4634 59.5166 45.8604L59.5166 53.6227L56.2188 53.6227Z" fill="rgb(66,68,110)" fill-rule="nonzero" />
	<path id="Vector" d="M76.9314 42.1621C77.7174 42.1621 78.2985 42.4199 78.6742 42.9353C79.0568 43.4436 79.2481 44.269 79.2481 45.4112L79.2481 53.6227L76.42 53.6227L76.42 45.7873C76.42 45.3973 76.3817 45.1222 76.3052 44.962C76.2355 44.8017 76.0894 44.7217 75.8668 44.7217C75.693 44.7217 75.512 44.774 75.3241 44.8784C75.1433 44.9759 74.9415 45.164 74.7189 45.4425L74.7189 53.6227L72.4021 53.6227L72.4021 45.7873C72.4021 45.3973 72.3638 45.1222 72.2873 44.962C72.2177 44.8017 72.0715 44.7217 71.8489 44.7217C71.6751 44.7217 71.4941 44.774 71.3062 44.8784C71.1254 44.9759 70.9236 45.164 70.701 45.4425L70.701 53.6227L67.8311 53.6227L67.8311 42.5278L70.2523 42.5278L70.4714 43.6038C70.8193 43.1302 71.1707 42.7715 71.5254 42.5278C71.8802 42.284 72.3012 42.1621 72.7882 42.1621C73.2056 42.1621 73.5604 42.27 73.8527 42.486C74.1519 42.695 74.3641 43.0257 74.4893 43.4784C74.8233 43.0884 75.192 42.7715 75.5955 42.5278C75.9991 42.284 76.4443 42.1621 76.9314 42.1621Z" fill="rgb(66,68,110)" fill-rule="nonzero" />
	<path id="Vector" d="M91.1004 40.7515L91.8728 43.1751C91.4832 43.3284 91.0274 43.4399 90.5057 43.5095C89.9838 43.5792 89.3751 43.6139 88.6794 43.6139C89.3751 43.9135 89.9038 44.2861 90.2656 44.7319C90.6344 45.1706 90.8187 45.7486 90.8187 46.4661C90.8187 47.1834 90.6274 47.8242 90.2448 48.3884C89.862 48.9456 89.3195 49.3844 88.6168 49.7047C87.9141 50.0252 87.0826 50.1853 86.1225 50.1853C85.6633 50.1853 85.2354 50.1435 84.8389 50.0599C84.7206 50.1226 84.6302 50.2131 84.5676 50.3316C84.5049 50.45 84.4736 50.5719 84.4736 50.6973C84.4736 50.8713 84.5431 51.028 84.6824 51.1673C84.8285 51.3067 85.1659 51.3763 85.6946 51.3763L87.5105 51.3763C88.3732 51.3763 89.1176 51.5155 89.7438 51.7942C90.3769 52.0727 90.8674 52.4524 91.2152 52.9329C91.5631 53.4135 91.7371 53.9638 91.7371 54.5836C91.7371 55.7189 91.2397 56.6139 90.2448 57.2685C89.2498 57.9232 87.7714 58.2506 85.8094 58.2506C84.3901 58.2506 83.2908 58.1043 82.5117 57.8118C81.7393 57.5263 81.2002 57.1154 80.8941 56.5789C80.5949 56.0497 80.4453 55.4194 80.4453 54.688L83.3673 54.688C83.3673 55.0084 83.43 55.2696 83.5552 55.4716C83.6874 55.6806 83.9344 55.8338 84.2962 55.9313C84.6649 56.0288 85.1972 56.0776 85.8929 56.0776C86.5956 56.0776 87.1313 56.0218 87.5 55.9104C87.8688 55.7989 88.1192 55.6458 88.2515 55.4507C88.3906 55.2626 88.4602 55.0502 88.4602 54.8134C88.4602 54.4861 88.3314 54.2214 88.0741 54.0195C87.8166 53.8175 87.4097 53.7165 86.853 53.7165L85.0893 53.7165C83.8926 53.7165 83.0229 53.4971 82.4803 53.0583C81.9376 52.6126 81.6663 52.0936 81.6663 51.5016C81.6663 51.0907 81.7741 50.7007 81.9898 50.3316C82.2124 49.9625 82.5221 49.6525 82.9187 49.4017C82.209 49.0256 81.701 48.5833 81.3949 48.075C81.0888 47.5596 80.9358 46.9431 80.9358 46.2258C80.9358 45.39 81.148 44.6726 81.5724 44.0737C81.9968 43.4677 82.5811 43.0011 83.3256 42.6738C84.077 42.3464 84.9329 42.1827 85.8929 42.1827C86.7208 42.1966 87.441 42.1409 88.0532 42.0155C88.6654 41.8832 89.2151 41.7057 89.702 41.4827C90.189 41.2528 90.6552 41.0091 91.1004 40.7515ZM85.9764 44.3244C85.4546 44.3244 85.0406 44.4916 84.7345 44.8259C84.4283 45.1532 84.2753 45.6059 84.2753 46.184C84.2753 46.7969 84.4319 47.267 84.745 47.5944C85.058 47.9217 85.4686 48.0854 85.9764 48.0854C87.1034 48.0854 87.667 47.4376 87.667 46.1422C87.667 44.9304 87.1034 44.3244 85.9764 44.3244Z" fill="rgb(66,68,110)" fill-rule="nonzero" />
</svg>
