<svg viewBox="0 0 88 87" xmlns="http://www.w3.org/2000/svg" xmlns:xlink="http://www.w3.org/1999/xlink" width="88.000000" height="87.000000" fill="none">
	<rect id="logos:bootstrap" width="88.000000" height="87.000000" x="0.000000" y="0.000000" fill="rgb(255,255,255)" fill-opacity="0" />
	<path id="Vector" d="M0 75.7821C0 81.9781 5.08028 87 11.3468 87L76.6528 87C82.9204 87 88 81.9774 88 75.7821L88 11.2182C88 5.02187 82.9197 0 76.6532 0L11.3472 0C5.07959 0 0 5.02255 0 11.2179L0 75.7818L0 75.7821Z" fill="rgb(86,61,124)" fill-rule="nonzero" />
	<path id="Vector" d="M36.4918 38.4832L36.4918 26.1629L47.4612 26.1629C48.5062 26.1629 49.5134 26.2489 50.4834 26.4212C51.4535 26.5931 52.3119 26.9003 53.0581 27.3431C53.8041 27.786 54.4012 28.4007 54.8491 29.1875C55.2966 29.9746 55.5208 30.9829 55.5208 32.2121C55.5208 34.4255 54.8491 36.0241 53.5057 37.0076C52.1627 37.9915 50.4463 38.4832 48.3567 38.4832L36.4918 38.4832ZM24.7758 17.1621L24.7758 69.8379L50.5955 69.8379C52.9835 69.8379 55.3093 69.5429 57.5729 68.9526C59.8365 68.3623 61.8513 67.4525 63.6174 66.223C65.3833 64.9934 66.7889 63.407 67.8335 61.4645C68.8785 59.5216 69.4007 57.2222 69.4007 54.5663C69.4007 51.2709 68.5922 48.4553 66.9755 46.1192C65.3585 43.7828 62.9083 42.1474 59.6248 41.2129C62.0128 40.0818 63.8165 38.6307 65.0354 36.8601C66.254 35.0895 66.8635 32.8765 66.8635 30.2203C66.8635 27.7612 66.453 25.6956 65.6322 24.0232C64.8113 22.3512 63.6546 21.0108 62.162 20.0025C60.6698 18.9942 58.8789 18.2686 56.7892 17.8262C54.6999 17.3833 52.3864 17.1621 49.8492 17.1621L24.7758 17.1621ZM36.4918 60.8371L36.4918 46.3771L49.2521 46.3771C51.7894 46.3771 53.8292 46.9548 55.3716 48.111C56.9136 49.2668 57.685 51.1971 57.685 53.9023C57.685 55.2797 57.4485 56.4107 56.9759 57.296C56.5032 58.1812 55.869 58.8823 55.0729 59.3986C54.2771 59.9151 53.3565 60.2839 52.3119 60.5054C51.2668 60.7263 50.1727 60.8371 49.0284 60.8371L36.4918 60.8371Z" fill="rgb(255,255,255)" fill-rule="nonzero" />
</svg>
