<svg viewBox="0 0 16 12" xmlns="http://www.w3.org/2000/svg" xmlns:xlink="http://www.w3.org/1999/xlink" width="16.000000" height="12.000000" fill="none">
	<rect id="mdi:office-building" width="16.000000" height="12.000000" x="0.000000" y="0.000000" fill="rgb(255,255,255)" fill-opacity="0" />
	<path id="Vector" d="M3.33325 1.5L3.33325 10.5L7.33325 10.5L7.33325 8.75L8.66659 8.75L8.66659 10.5L12.6666 10.5L12.6666 1.5L3.33325 1.5ZM4.66659 2.5L5.99992 2.5L5.99992 3.5L4.66659 3.5L4.66659 2.5ZM7.33325 2.5L8.66659 2.5L8.66659 3.5L7.33325 3.5L7.33325 2.5ZM9.99992 2.5L11.3333 2.5L11.3333 3.5L9.99992 3.5L9.99992 2.5ZM4.66659 4.5L5.99992 4.5L5.99992 5.5L4.66659 5.5L4.66659 4.5ZM7.33325 4.5L8.66659 4.5L8.66659 5.5L7.33325 5.5L7.33325 4.5ZM9.99992 4.5L11.3333 4.5L11.3333 5.5L9.99992 5.5L9.99992 4.5ZM4.66659 6.5L5.99992 6.5L5.99992 7.5L4.66659 7.5L4.66659 6.5ZM7.33325 6.5L8.66659 6.5L8.66659 7.5L7.33325 7.5L7.33325 6.5ZM9.99992 6.5L11.3333 6.5L11.3333 7.5L9.99992 7.5L9.99992 6.5ZM4.66659 8.5L5.99992 8.5L5.99992 9.5L4.66659 9.5L4.66659 8.5ZM9.99992 8.5L11.3333 8.5L11.3333 9.5L9.99992 9.5L9.99992 8.5Z" fill="rgb(166.812,166.812,166.812)" fill-rule="nonzero" />
</svg>
