<?xml version="1.0" standalone="no"?>
<!DOCTYPE svg PUBLIC "-//W3C//DTD SVG 20010904//EN"
 "http://www.w3.org/TR/2001/REC-SVG-20010904/DTD/svg10.dtd">
<svg version="1.0" xmlns="http://www.w3.org/2000/svg"
 width="105.000000pt" height="100.000000pt" viewBox="0 0 105.000000 100.000000"
 preserveAspectRatio="xMidYMid meet">

<g transform="translate(0.000000,100.000000) scale(0.100000,-0.100000)"
fill="#000000" stroke="none">
<path d="M448 986 c-206 -57 -294 -336 -187 -591 16 -38 29 -86 29 -107 0 -28
6 -42 26 -57 35 -27 59 -26 89 4 44 43 24 107 -36 120 -26 6 -35 17 -55 61
-74 167 -45 372 66 467 47 40 122 63 175 53 68 -13 141 -101 165 -198 9 -33
18 -48 33 -52 36 -10 38 -7 31 32 -35 195 -181 312 -336 268z"/>
<path d="M401 664 c-12 -15 -21 -34 -21 -44 0 -10 9 -29 21 -44 25 -32 66 -34
102 -6 44 35 169 20 275 -34 124 -63 219 -197 210 -296 -6 -59 -37 -108 -91
-144 -53 -34 -111 -41 -183 -23 -56 14 -60 14 -88 -6 l-29 -21 54 -18 c39 -14
75 -18 129 -16 336 14 357 400 32 571 -75 40 -172 67 -240 67 -29 0 -53 7 -69
20 -36 28 -77 26 -102 -6z"/>
<path d="M97 480 c-140 -156 -122 -357 40 -436 155 -77 408 5 527 169 42 59
68 88 109 122 24 21 22 70 -5 95 -61 56 -148 -16 -108 -89 7 -15 1 -30 -29
-72 -57 -78 -149 -145 -250 -179 -104 -35 -194 -23 -258 33 -45 40 -63 82 -63
149 0 59 39 140 85 176 20 16 24 25 19 51 -4 17 -10 31 -14 31 -5 0 -28 -22
-53 -50z"/>
</g>
</svg>
