<?xml version="1.0" standalone="no"?>
<!DOCTYPE svg PUBLIC "-//W3C//DTD SVG 20010904//EN"
 "http://www.w3.org/TR/2001/REC-SVG-20010904/DTD/svg10.dtd">
<svg version="1.0" xmlns="http://www.w3.org/2000/svg"
 width="105.000000pt" height="100.000000pt" viewBox="0 0 105.000000 100.000000"
 preserveAspectRatio="xMidYMid meet">
<metadata>
Created by potrace 1.16, written by Peter Selinger 2001-2019
</metadata>
<g transform="translate(0.000000,100.000000) scale(0.100000,-0.100000)"
fill="#000000" stroke="none">
<path d="M392 969 c-178 -88 -237 -356 -131 -594 12 -27 21 -66 20 -85 -3 -49
28 -80 79 -80 30 0 43 6 59 26 12 15 21 37 21 49 0 32 -37 75 -66 75 -29 0
-56 49 -80 143 -46 176 34 381 163 416 124 35 205 -22 253 -179 15 -47 22 -55
50 -63 18 -4 34 -7 36 -5 7 7 -25 137 -41 168 -26 51 -96 121 -140 141 -64 30
-149 25 -223 -12z"/>
<path d="M404 677 c-35 -31 -37 -77 -4 -112 31 -33 73 -33 106 0 24 24 27 24
102 15 307 -39 486 -342 284 -481 -30 -20 -47 -24 -111 -24 -42 1 -86 7 -99
14 -21 11 -28 9 -60 -15 l-36 -28 43 -19 c104 -45 246 -29 333 37 68 52 92
108 86 204 -6 97 -35 157 -113 235 -88 88 -250 156 -373 157 -19 0 -45 9 -59
20 -34 26 -66 25 -99 -3z"/>
<path d="M105 499 c-24 -23 -58 -68 -75 -102 -40 -80 -42 -176 -6 -253 103
-221 509 -160 675 101 17 26 43 56 59 65 78 48 27 167 -62 144 -47 -11 -70
-69 -46 -113 7 -14 2 -29 -25 -67 -102 -145 -310 -229 -440 -180 -88 34 -137
126 -115 214 12 48 58 123 90 145 17 12 18 18 9 50 -5 20 -12 37 -15 37 -2 0
-24 -18 -49 -41z"/>
</g>
</svg>
