<svg width="88" height="86" version="1.1" xmlns="http://www.w3.org/2000/svg" desc="Created with imagetracer.js version 1.2.6" ><path fill="rgb(0,0,0)" stroke="rgb(0,0,0)" stroke-width="1" opacity="0.9372549019607843" d="M 45.5 0 L 48 0.5 L 45.5 1 L 45.5 0 Z " /><path fill="rgb(0,0,0)" stroke="rgb(0,0,0)" stroke-width="1" opacity="0.9372549019607843" d="M 18.5 8 L 17.5 10 L 18.5 8 Z " /><path fill="rgb(0,0,0)" stroke="rgb(0,0,0)" stroke-width="1" opacity="0.9372549019607843" d="M 78.5 17 L 79.5 19 L 78.5 17 Z " /><path fill="rgb(0,0,0)" stroke="rgb(0,0,0)" stroke-width="1" opacity="0.9372549019607843" d="M 68.5 30 L 69.5 32 L 68.5 30 Z " /><path fill="rgb(0,0,0)" stroke="rgb(0,0,0)" stroke-width="1" opacity="0.9372549019607843" d="M 0.5 40 L 1 42.5 L 0 42.5 L 0.5 40 Z " /><path fill="rgb(0,0,0)" stroke="rgb(0,0,0)" stroke-width="1" opacity="0.9372549019607843" d="M 72.5 40 L 73 44.5 L 72 44.5 L 72.5 40 Z " /><path fill="rgb(0,0,0)" stroke="rgb(0,0,0)" stroke-width="1" opacity="0.9372549019607843" d="M 0.5 45 L 1 47.5 L 0 47.5 L 0.5 45 Z " /><path fill="rgb(0,0,0)" stroke="rgb(0,0,0)" stroke-width="1" opacity="0.9372549019607843" d="M 87.5 45 L 88 47.5 L 87 47.5 L 87.5 45 Z " /><path fill="rgb(0,0,0)" stroke="rgb(0,0,0)" stroke-width="1" opacity="0.9372549019607843" d="M 67.5 57 L 66.5 59 L 67.5 57 Z " /><path fill="rgb(0,0,0)" stroke="rgb(0,0,0)" stroke-width="1" opacity="0.9372549019607843" d="M 33.5 63 L 34.5 65 L 33.5 63 Z " /><path fill="rgb(0,0,0)" stroke="rgb(0,0,0)" stroke-width="1" opacity="0.9372549019607843" d="M 54.5 63 L 53.5 65 L 54.5 63 Z " /><path fill="rgb(0,0,0)" stroke="rgb(0,0,0)" stroke-width="1" opacity="0.9372549019607843" d="M 21.5 66 L 23.5 69 L 21.5 66 Z " /><path fill="rgb(0,0,0)" stroke="rgb(0,0,0)" stroke-width="1" opacity="0.9372549019607843" d="M 8.5 69 L 9.5 71 L 8.5 69 Z " /><path fill="rgb(0,0,0)" stroke="rgb(0,0,0)" stroke-width="1" opacity="0.9372549019607843" d="M 79.5 69 L 78.5 71 L 79.5 69 Z " /><path fill="rgb(0,0,0)" stroke="rgb(0,0,0)" stroke-width="1" opacity="0.9372549019607843" d="M 70.5 78 L 69.5 80 L 70.5 78 Z " /><path fill="rgb(0,0,0)" stroke="rgb(0,0,0)" stroke-width="1" opacity="1" d="M 43.5 0 L 59.5 3 Q 71 7.5 78 16.5 L 85 28.5 L 88 44.5 L 85 59.5 Q 80.5 71 71.5 78 L 59.5 85 L 56.5 85 L 55 83.5 L 55 66.5 L 54 64.5 L 55.5 63 L 61.5 62 L 68 57.5 Q 73.1 51.6 73 40.5 L 72 35.5 L 68 29.5 Q 70.8 27.8 69 21.5 L 68 18 L 62.5 18 L 55.5 22 L 52.5 22 L 51.5 21 L 37.5 21 L 32.5 22 Q 28.6 16.9 20 18 L 19 27.5 L 20 29.5 Q 13.8 34.8 16 48.5 Q 17.6 57.4 24.5 61 L 34 64.5 L 33 69 L 26.5 70 L 16.5 61 L 11 61 L 13.5 65 Q 15.8 64.3 15 66.5 L 21.5 75 L 23.5 76 L 33 76 L 33 83.5 L 31.5 85 Q 17.1 81.9 10 71.5 L 3 59.5 L 0 43.5 L 3 28.5 Q 7.5 17 16.5 10 L 28.5 3 L 43.5 0 Z " /><path fill="rgb(0,0,0)" stroke="rgb(0,0,0)" stroke-width="1" opacity="0" d="M 0 0 L 35 0.5 Q 17 4.5 8 17.5 Q 2.2 24.2 0.5 35 L 0 0 Z " /><path fill="rgb(0,0,0)" stroke="rgb(0,0,0)" stroke-width="1" opacity="0" d="M 53.5 0 L 88 0 L 88 34.5 L 87 34.5 Q 83.4 16.6 70.5 8 L 59.5 2 L 53.5 1 L 53.5 0 Z " /><path fill="rgb(0,0,0)" stroke="rgb(0,0,0)" stroke-width="1" opacity="0" d="M 21 19 L 25.5 19 L 32.5 23 L 35.5 23 L 36.5 22 L 51.5 22 L 55.5 23 L 62.5 19 L 66.5 19 L 68 20.5 L 68 28.5 L 68 30.5 Q 72.7 35.3 72 45.5 L 69 54.5 L 63.5 60 L 52 63 L 55 70.5 L 55 86 L 33.5 86 L 33 84.5 Q 35.2 83.2 34 78.5 L 33 75 L 23.5 75 L 19 71.5 Q 17.8 65.8 13.5 63 L 12 62.5 L 16.5 62 L 22.5 69 Q 24.8 71.7 30.5 71 L 34 70 L 34 66.5 L 36 63 L 26.5 61 L 20 55.5 L 17 49.5 Q 18.8 43.3 16 41.5 L 21 28.5 Q 18.5 27 20 21.5 L 21 19 Z " /><path fill="rgb(0,0,0)" stroke="rgb(0,0,0)" stroke-width="1" opacity="0" d="M 0.5 53 Q 4.5 71 17.5 80 L 28 85.5 L 0 86 L 0.5 53 Z " /><path fill="rgb(0,0,0)" stroke="rgb(0,0,0)" stroke-width="1" opacity="0" d="M 87.5 53 L 88 86 L 60 85.5 Q 72.7 80.7 80 70.5 Q 85.8 63.8 87.5 53 Z " /><path fill="rgb(0,0,0)" stroke="rgb(0,0,0)" stroke-width="1" opacity="0.39215686274509803" d="M 45.5 21 L 48 21.5 L 45.5 22 L 45.5 21 Z " /><path fill="rgb(0,0,0)" stroke="rgb(0,0,0)" stroke-width="1" opacity="0.39215686274509803" d="M 17.5 62 L 19.5 65 L 17.5 62 Z " /><path fill="rgb(0,0,0)" stroke="rgb(0,0,0)" stroke-width="1" opacity="0.12549019607843137" d="M 26.5 75 L 30 75.5 L 26.5 76 L 26.5 75 Z " /><path fill="rgb(0,0,0)" stroke="rgb(0,0,0)" stroke-width="1" opacity="0.12549019607843137" d="M 33.5 78 L 34 83.5 L 33 83.5 L 33.5 78 Z " /><path fill="rgb(0,0,0)" stroke="rgb(0,0,0)" stroke-width="1" opacity="0.5411764705882353" d="M 15.5 10 L 10.5 16 L 15.5 10 Z " /><path fill="rgb(0,0,0)" stroke="rgb(0,0,0)" stroke-width="1" opacity="0.5411764705882353" d="M 72.5 10 L 77.5 16 L 72.5 10 Z " /><path fill="rgb(0,0,0)" stroke="rgb(0,0,0)" stroke-width="1" opacity="0.5411764705882353" d="M 68.5 23 L 69 26.5 L 68 26.5 L 68.5 23 Z " /><path fill="rgb(0,0,0)" stroke="rgb(0,0,0)" stroke-width="1" opacity="0.5411764705882353" d="M 19.5 55 L 22.5 59 L 19.5 55 Z " /><path fill="rgb(0,0,0)" stroke="rgb(0,0,0)" stroke-width="1" opacity="0.5411764705882353" d="M 10.5 72 L 15.5 78 L 10.5 72 Z " /><path fill="rgb(0,0,0)" stroke="rgb(0,0,0)" stroke-width="1" opacity="0.5411764705882353" d="M 19.5 72 L 20.5 74 L 19.5 72 Z " /><path fill="rgb(0,0,0)" stroke="rgb(0,0,0)" stroke-width="1" opacity="0.5411764705882353" d="M 77.5 72 L 72.5 78 L 77.5 72 Z " /><path fill="rgb(0,0,0)" stroke="rgb(0,0,0)" stroke-width="1" opacity="0.2823529411764706" d="M 42.5 21 L 45 21.5 L 42.5 22 L 42.5 21 Z " /><path fill="rgb(0,0,0)" stroke="rgb(0,0,0)" stroke-width="1" opacity="0.8117647058823529" d="M 38.5 0 L 41 0.5 L 38.5 1 L 38.5 0 Z " /><path fill="rgb(0,0,0)" stroke="rgb(0,0,0)" stroke-width="1" opacity="0.8117647058823529" d="M 19.5 23 L 20 26.5 L 19 26.5 L 19.5 23 Z " /><path fill="rgb(0,0,0)" stroke="rgb(0,0,0)" stroke-width="1" opacity="0.8117647058823529" d="M 87.5 38 L 88 40.5 L 87 40.5 L 87.5 38 Z " /><path fill="rgb(0,0,0)" stroke="rgb(0,0,0)" stroke-width="1" opacity="0.8117647058823529" d="M 55.5 84 L 58 85.5 L 56.5 86 L 55.5 84 Z " /></svg>