<svg width="105" height="100" version="1.1" xmlns="http://www.w3.org/2000/svg" desc="Created with imagetracer.js version 1.2.6" ><path fill="rgb(0,0,0)" stroke="rgb(0,0,0)" stroke-width="1" opacity="0" d="M 0 0 L 45 0.5 Q 35.5 3 30 9.5 L 23 21.5 L 21 29.5 L 21 47.5 Q 23 59.5 29 67.5 Q 26.5 69 28 74.5 L 30 78 Q 32.7 79.9 39.5 79 Q 44.9 77.4 44 69.5 L 39.5 64 Q 35 65 34 62.5 Q 26.7 51.8 28 32.5 Q 29.5 23 34 16.5 L 40.5 10 L 48.5 7 L 55.5 7 Q 63.4 9.1 67 15.5 L 73.5 32 L 80 33 L 78 21.5 L 75 14.5 L 64.5 3 L 58 0.5 L 105 0 L 104.5 68 Q 101.5 55 92.5 48 L 76.5 38 Q 66.8 33.7 52.5 34 Q 50.9 29.1 43.5 30 L 38 34.5 L 37 38.5 L 42.5 46 Q 50.1 47.1 52 42.5 Q 51.1 39.5 55.5 41 L 71.5 44 Q 84.9 49.1 93 59.5 L 98 70.5 L 98 78.5 L 93 88 L 86.5 92 L 74.5 93 L 65.5 90 L 59 95.5 Q 63.5 99 71 99.5 L 28.5 100 L 28.5 99 L 35.5 99 L 45.5 96 Q 57.2 91.2 65 82.5 L 73.5 70 L 79 66.5 L 80 60.5 L 78 56 L 70.5 54 L 65 57.5 L 64 64.5 L 66 67.5 L 56.5 80 L 40.5 90 Q 33.3 93.3 21.5 92 Q 13.2 89.8 9 83.5 Q 5.8 79.2 6 71.5 Q 8.1 59.6 16.5 54 Q 18.8 54.8 18 52.5 L 15.5 46 L 6 54.5 L 0.5 66 L 0 0 Z " /><path fill="rgb(0,0,0)" stroke="rgb(0,0,0)" stroke-width="1" opacity="0" d="M 0.5 81 Q 2.3 89.7 8.5 94 L 19.5 99 L 27 99.5 L 0 100 L 0.5 81 Z " /><path fill="rgb(0,0,0)" stroke="rgb(0,0,0)" stroke-width="1" opacity="0" d="M 104.5 82 L 105 100 L 83 99.5 Q 95 97.5 101 89.5 L 104.5 82 Z " /><path fill="rgb(117,73,187)" stroke="rgb(117,73,187)" stroke-width="1" opacity="0.4627450980392157" d="M 45.5 0 L 48 0.5 L 45.5 1 L 45.5 0 Z " /><path fill="rgb(117,73,187)" stroke="rgb(117,73,187)" stroke-width="1" opacity="0.4627450980392157" d="M 55.5 0 L 58 0.5 L 55.5 1 L 55.5 0 Z " /><path fill="rgb(117,73,187)" stroke="rgb(117,73,187)" stroke-width="1" opacity="0.4627450980392157" d="M 59.5 1 Q 68.8 3.7 73 11.5 L 64.5 4 L 59.5 2 L 59.5 1 Z " /><path fill="rgb(117,73,187)" stroke="rgb(117,73,187)" stroke-width="1" opacity="0.4627450980392157" d="M 36.5 4 L 34.5 7 L 30.5 10 L 33.5 6 L 36.5 4 Z " /><path fill="rgb(117,73,187)" stroke="rgb(117,73,187)" stroke-width="1" opacity="0.4627450980392157" d="M 49.5 6 L 55 6.5 L 49.5 7 L 49.5 6 Z " /><path fill="rgb(117,73,187)" stroke="rgb(117,73,187)" stroke-width="1" opacity="0.4627450980392157" d="M 45.5 7 L 48 7.5 L 45.5 8 L 45.5 7 Z " /><path fill="rgb(117,73,187)" stroke="rgb(117,73,187)" stroke-width="1" opacity="0.4627450980392157" d="M 61.5 9 L 66.5 15 L 61.5 9 Z " /><path fill="rgb(117,73,187)" stroke="rgb(117,73,187)" stroke-width="1" opacity="0.4627450980392157" d="M 39.5 10 L 34.5 16 L 39.5 10 Z " /><path fill="rgb(117,73,187)" stroke="rgb(117,73,187)" stroke-width="1" opacity="0.4627450980392157" d="M 29.5 11 L 28 13.5 L 26.5 16 L 27 14.5 L 29.5 11 Z " /><path fill="rgb(117,73,187)" stroke="rgb(117,73,187)" stroke-width="1" opacity="0.4627450980392157" d="M 73.5 13 L 77 19.5 L 76 19.5 L 73.5 13 Z " /><path fill="rgb(117,73,187)" stroke="rgb(117,73,187)" stroke-width="1" opacity="0.4627450980392157" d="M 67.5 16 L 70 20.5 L 69 20.5 L 67.5 16 Z " /><path fill="rgb(117,73,187)" stroke="rgb(117,73,187)" stroke-width="1" opacity="0.4627450980392157" d="M 33.5 17 L 33 18.5 L 30.5 24 L 30 22.5 L 33.5 17 Z " /><path fill="rgb(117,73,187)" stroke="rgb(117,73,187)" stroke-width="1" opacity="0.4627450980392157" d="M 24.5 19 L 25 20.5 L 23.5 24 L 23 21.5 L 24.5 19 Z " /><path fill="rgb(117,73,187)" stroke="rgb(117,73,187)" stroke-width="1" opacity="0.4627450980392157" d="M 77.5 21 L 78 23.5 L 77 23.5 L 77.5 21 Z " /><path fill="rgb(117,73,187)" stroke="rgb(117,73,187)" stroke-width="1" opacity="0.4627450980392157" d="M 70.5 22 L 72 26.5 L 71 26.5 L 70.5 22 Z " /><path fill="rgb(117,73,187)" stroke="rgb(117,73,187)" stroke-width="1" opacity="0.4627450980392157" d="M 78.5 25 L 79 27.5 L 78 27.5 L 78.5 25 Z " /><path fill="rgb(117,73,187)" stroke="rgb(117,73,187)" stroke-width="1" opacity="0.4627450980392157" d="M 28.5 28 L 29 31.5 L 28 31.5 L 28.5 28 Z " /><path fill="rgb(117,73,187)" stroke="rgb(117,73,187)" stroke-width="1" opacity="0.4627450980392157" d="M 21.5 29 L 22 33.5 L 21 33.5 L 21.5 29 Z " /><path fill="rgb(117,73,187)" stroke="rgb(117,73,187)" stroke-width="1" opacity="0.4627450980392157" d="M 72.5 29 L 73 31 L 76 31.5 L 73.5 32 L 72.5 29 Z " /><path fill="rgb(117,73,187)" stroke="rgb(117,73,187)" stroke-width="1" opacity="0.4627450980392157" d="M 43.5 30 Q 50.9 29.1 52.5 34 L 61 34.5 L 52.5 35 Q 50.9 30.1 43.5 31 L 43.5 30 Z " /><path fill="rgb(117,73,187)" stroke="rgb(117,73,187)" stroke-width="1" opacity="0.4627450980392157" d="M 41.5 31 L 39 34.5 L 38.5 36 L 38 34.5 L 41.5 31 Z " /><path fill="rgb(117,73,187)" stroke="rgb(117,73,187)" stroke-width="1" opacity="0.4627450980392157" d="M 79.5 31 L 80 33 L 77 32.5 L 79.5 31 Z " /><path fill="rgb(117,73,187)" stroke="rgb(117,73,187)" stroke-width="1" opacity="0.4627450980392157" d="M 27.5 35 L 28 42.5 L 27 42.5 L 27.5 35 Z " /><path fill="rgb(117,73,187)" stroke="rgb(117,73,187)" stroke-width="1" opacity="0.4627450980392157" d="M 63.5 35 L 67 35.5 L 63.5 36 L 63.5 35 Z " /><path fill="rgb(117,73,187)" stroke="rgb(117,73,187)" stroke-width="1" opacity="0.4627450980392157" d="M 68.5 36 L 71 36.5 L 68.5 37 L 68.5 36 Z " /><path fill="rgb(117,73,187)" stroke="rgb(117,73,187)" stroke-width="1" opacity="0.4627450980392157" d="M 38.5 40 L 40 42.5 L 38 41.5 L 38.5 40 Z " /><path fill="rgb(117,73,187)" stroke="rgb(117,73,187)" stroke-width="1" opacity="0.4627450980392157" d="M 56.5 41 L 63 41.5 L 56.5 42 L 56.5 41 Z " /><path fill="rgb(117,73,187)" stroke="rgb(117,73,187)" stroke-width="1" opacity="0.4627450980392157" d="M 82.5 41 L 86 43.5 L 84.5 43 L 82.5 41 Z " /><path fill="rgb(117,73,187)" stroke="rgb(117,73,187)" stroke-width="1" opacity="0.4627450980392157" d="M 51.5 42 L 49.5 45 L 42.5 46 L 41.5 44 Q 42.8 46.3 47.5 45 L 51.5 42 Z " /><path fill="rgb(117,73,187)" stroke="rgb(117,73,187)" stroke-width="1" opacity="0.4627450980392157" d="M 21.5 44 L 22 47.5 L 21 47.5 L 21.5 44 Z " /><path fill="rgb(117,73,187)" stroke="rgb(117,73,187)" stroke-width="1" opacity="0.4627450980392157" d="M 87.5 44 L 90.5 48 L 87.5 44 Z " /><path fill="rgb(117,73,187)" stroke="rgb(117,73,187)" stroke-width="1" opacity="0.4627450980392157" d="M 74.5 45 L 81 48.5 L 79.5 48 L 74.5 46 L 74.5 45 Z " /><path fill="rgb(117,73,187)" stroke="rgb(117,73,187)" stroke-width="1" opacity="0.4627450980392157" d="M 28.5 46 L 29 48.5 L 28 48.5 L 28.5 46 Z " /><path fill="rgb(117,73,187)" stroke="rgb(117,73,187)" stroke-width="1" opacity="0.4627450980392157" d="M 13.5 47 L 6.5 55 L 13.5 47 Z " /><path fill="rgb(117,73,187)" stroke="rgb(117,73,187)" stroke-width="1" opacity="0.4627450980392157" d="M 16.5 48 L 17 50.5 L 16 50.5 L 16.5 48 Z " /><path fill="rgb(117,73,187)" stroke="rgb(117,73,187)" stroke-width="1" opacity="0.4627450980392157" d="M 92.5 48 L 94.5 51 L 92.5 48 Z " /><path fill="rgb(117,73,187)" stroke="rgb(117,73,187)" stroke-width="1" opacity="0.4627450980392157" d="M 82.5 49 L 93 58.5 L 85.5 52 L 82.5 49 Z " /><path fill="rgb(117,73,187)" stroke="rgb(117,73,187)" stroke-width="1" opacity="0.4627450980392157" d="M 22.5 50 L 23 52.5 L 22 52.5 L 22.5 50 Z " /><path fill="rgb(117,73,187)" stroke="rgb(117,73,187)" stroke-width="1" opacity="0.4627450980392157" d="M 95.5 52 L 102 60.5 L 100 59.5 L 95.5 52 Z " /><path fill="rgb(117,73,187)" stroke="rgb(117,73,187)" stroke-width="1" opacity="0.4627450980392157" d="M 15.5 54 L 12.5 58 L 15.5 54 Z " /><path fill="rgb(117,73,187)" stroke="rgb(117,73,187)" stroke-width="1" opacity="0.4627450980392157" d="M 70.5 54 L 74 54.5 L 70.5 55 L 70.5 54 Z " /><path fill="rgb(117,73,187)" stroke="rgb(117,73,187)" stroke-width="1" opacity="0.4627450980392157" d="M 67.5 55 L 69 55.5 L 66 57.5 L 65 64.5 L 67 67.5 L 65 68.5 L 65 66.5 L 64 59.5 L 67.5 55 Z " /><path fill="rgb(117,73,187)" stroke="rgb(117,73,187)" stroke-width="1" opacity="0.4627450980392157" d="M 5.5 56 L 4.5 58 L 5.5 56 Z " /><path fill="rgb(117,73,187)" stroke="rgb(117,73,187)" stroke-width="1" opacity="0.4627450980392157" d="M 31.5 57 L 35 63.5 L 33 62.5 L 31.5 57 Z " /><path fill="rgb(117,73,187)" stroke="rgb(117,73,187)" stroke-width="1" opacity="0.4627450980392157" d="M 11.5 59 L 10 61.5 L 8.5 64 L 9 62.5 L 11.5 59 Z " /><path fill="rgb(117,73,187)" stroke="rgb(117,73,187)" stroke-width="1" opacity="0.4627450980392157" d="M 79.5 60 L 80 63.5 L 79 63.5 L 79.5 60 Z " /><path fill="rgb(117,73,187)" stroke="rgb(117,73,187)" stroke-width="1" opacity="0.4627450980392157" d="M 93.5 60 L 94.5 62 L 93.5 60 Z " /><path fill="rgb(117,73,187)" stroke="rgb(117,73,187)" stroke-width="1" opacity="0.4627450980392157" d="M 26.5 62 L 29 66.5 L 27 65.5 L 26.5 62 Z " /><path fill="rgb(117,73,187)" stroke="rgb(117,73,187)" stroke-width="1" opacity="0.4627450980392157" d="M 102.5 62 L 104 65.5 L 103 65.5 L 102.5 62 Z " /><path fill="rgb(117,73,187)" stroke="rgb(117,73,187)" stroke-width="1" opacity="0.4627450980392157" d="M 37.5 64 Q 42.5 63.5 43 67.5 L 44 73.5 L 43 73.5 Q 43.9 66.6 39.5 65 Q 36.5 65.5 37.5 64 Z " /><path fill="rgb(117,73,187)" stroke="rgb(117,73,187)" stroke-width="1" opacity="0.4627450980392157" d="M 78.5 65 L 79 66.5 L 72 71.5 L 65.5 81 L 68 77.5 L 73.5 69 L 78 66.5 L 78.5 65 Z " /><path fill="rgb(117,73,187)" stroke="rgb(117,73,187)" stroke-width="1" opacity="0.4627450980392157" d="M 96.5 65 L 98 69.5 L 97 69.5 L 96.5 65 Z " /><path fill="rgb(117,73,187)" stroke="rgb(117,73,187)" stroke-width="1" opacity="0.4627450980392157" d="M 0.5 66 L 1 69.5 L 0 69.5 L 0.5 66 Z " /><path fill="rgb(117,73,187)" stroke="rgb(117,73,187)" stroke-width="1" opacity="0.4627450980392157" d="M 6.5 68 L 7 70.5 L 6 70.5 L 6.5 68 Z " /><path fill="rgb(117,73,187)" stroke="rgb(117,73,187)" stroke-width="1" opacity="0.4627450980392157" d="M 28.5 68 Q 27.5 76 32.5 78 L 34 78.5 L 32.5 79 L 30 78 L 28 74.5 L 28.5 68 Z " /><path fill="rgb(117,73,187)" stroke="rgb(117,73,187)" stroke-width="1" opacity="0.4627450980392157" d="M 104.5 68 L 105 71.5 L 104 71.5 L 104.5 68 Z " /><path fill="rgb(117,73,187)" stroke="rgb(117,73,187)" stroke-width="1" opacity="0.4627450980392157" d="M 64.5 70 L 64 71.5 L 57.5 80 L 60 76.5 L 64.5 70 Z " /><path fill="rgb(117,73,187)" stroke="rgb(117,73,187)" stroke-width="1" opacity="0.4627450980392157" d="M 98.5 71 L 99 78.5 L 97.5 81 L 97 79.5 L 98.5 71 Z " /><path fill="rgb(117,73,187)" stroke="rgb(117,73,187)" stroke-width="1" opacity="0.4627450980392157" d="M 42.5 75 L 39.5 79 L 38 78.5 L 42.5 75 Z " /><path fill="rgb(117,73,187)" stroke="rgb(117,73,187)" stroke-width="1" opacity="0.4627450980392157" d="M 6.5 76 L 7 78.5 L 6 78.5 L 6.5 76 Z " /><path fill="rgb(117,73,187)" stroke="rgb(117,73,187)" stroke-width="1" opacity="0.4627450980392157" d="M 0.5 78 L 1 80.5 L 0 80.5 L 0.5 78 Z " /><path fill="rgb(117,73,187)" stroke="rgb(117,73,187)" stroke-width="1" opacity="0.4627450980392157" d="M 104.5 78 L 105 81.5 L 104 81.5 L 104.5 78 Z " /><path fill="rgb(117,73,187)" stroke="rgb(117,73,187)" stroke-width="1" opacity="0.4627450980392157" d="M 7.5 80 L 14.5 89 L 21 91.5 L 18.5 92 L 8 83.5 L 7.5 80 Z " /><path fill="rgb(117,73,187)" stroke="rgb(117,73,187)" stroke-width="1" opacity="0.4627450980392157" d="M 55.5 80 L 52.5 84 L 55.5 80 Z " /><path fill="rgb(117,73,187)" stroke="rgb(117,73,187)" stroke-width="1" opacity="0.4627450980392157" d="M 64.5 82 L 61.5 86 L 64.5 82 Z " /><path fill="rgb(117,73,187)" stroke="rgb(117,73,187)" stroke-width="1" opacity="0.4627450980392157" d="M 103.5 83 L 104 84.5 L 97.5 93 L 100 89.5 L 103.5 83 Z " /><path fill="rgb(117,73,187)" stroke="rgb(117,73,187)" stroke-width="1" opacity="0.4627450980392157" d="M 50.5 84 L 49.5 86 L 47.5 87 L 48.5 85 L 50.5 84 Z " /><path fill="rgb(117,73,187)" stroke="rgb(117,73,187)" stroke-width="1" opacity="0.4627450980392157" d="M 95.5 84 L 94 86.5 L 93.5 88 L 93 86.5 L 95.5 84 Z " /><path fill="rgb(117,73,187)" stroke="rgb(117,73,187)" stroke-width="1" opacity="0.4627450980392157" d="M 59.5 86 L 56.5 90 L 51.5 93 L 52.5 91 L 59.5 86 Z " /><path fill="rgb(117,73,187)" stroke="rgb(117,73,187)" stroke-width="1" opacity="0.4627450980392157" d="M 45.5 87 L 44.5 89 L 43 88.5 L 45.5 87 Z " /><path fill="rgb(117,73,187)" stroke="rgb(117,73,187)" stroke-width="1" opacity="0.4627450980392157" d="M 91.5 88 L 89.5 91 L 91.5 88 Z " /><path fill="rgb(117,73,187)" stroke="rgb(117,73,187)" stroke-width="1" opacity="0.4627450980392157" d="M 4.5 89 L 8.5 94 L 4.5 89 Z " /><path fill="rgb(117,73,187)" stroke="rgb(117,73,187)" stroke-width="1" opacity="0.4627450980392157" d="M 65.5 90 L 69 91.5 L 67.5 92 L 65.5 91 L 59.5 96 L 62.5 92 L 65.5 90 Z " /><path fill="rgb(117,73,187)" stroke="rgb(117,73,187)" stroke-width="1" opacity="0.4627450980392157" d="M 34.5 91 L 37 91.5 L 34.5 92 L 34.5 91 Z " /><path fill="rgb(117,73,187)" stroke="rgb(117,73,187)" stroke-width="1" opacity="0.4627450980392157" d="M 22.5 92 L 32 92.5 L 22.5 93 L 22.5 92 Z " /><path fill="rgb(117,73,187)" stroke="rgb(117,73,187)" stroke-width="1" opacity="0.4627450980392157" d="M 70.5 92 L 74 92.5 L 70.5 93 L 70.5 92 Z " /><path fill="rgb(117,73,187)" stroke="rgb(117,73,187)" stroke-width="1" opacity="0.4627450980392157" d="M 83.5 92 L 86 92.5 L 83.5 93 L 83.5 92 Z " /><path fill="rgb(117,73,187)" stroke="rgb(117,73,187)" stroke-width="1" opacity="0.4627450980392157" d="M 76.5 93 L 81 93.5 L 76.5 94 L 76.5 93 Z " /><path fill="rgb(117,73,187)" stroke="rgb(117,73,187)" stroke-width="1" opacity="0.4627450980392157" d="M 95.5 93 L 93.5 96 L 88.5 98 L 88.5 97 L 95.5 93 Z " /><path fill="rgb(117,73,187)" stroke="rgb(117,73,187)" stroke-width="1" opacity="0.4627450980392157" d="M 10.5 94 L 15 96.5 L 13.5 97 L 10.5 94 Z " /><path fill="rgb(117,73,187)" stroke="rgb(117,73,187)" stroke-width="1" opacity="0.4627450980392157" d="M 46.5 94 L 48 94.5 L 44.5 96 L 44.5 95 L 46.5 94 Z " /><path fill="rgb(117,73,187)" stroke="rgb(117,73,187)" stroke-width="1" opacity="0.4627450980392157" d="M 37.5 97 L 40 97.5 L 37.5 98 L 37.5 97 Z " /><path fill="rgb(117,73,187)" stroke="rgb(117,73,187)" stroke-width="1" opacity="0.4627450980392157" d="M 19.5 98 L 23 98.5 L 19.5 99 L 19.5 98 Z " /><path fill="rgb(117,73,187)" stroke="rgb(117,73,187)" stroke-width="1" opacity="0.4627450980392157" d="M 32.5 98 L 36 98.5 L 32.5 99 L 32.5 98 Z " /><path fill="rgb(117,73,187)" stroke="rgb(117,73,187)" stroke-width="1" opacity="0.4627450980392157" d="M 66.5 98 L 69 98.5 L 66.5 99 L 66.5 98 Z " /><path fill="rgb(117,73,187)" stroke="rgb(117,73,187)" stroke-width="1" opacity="0.4627450980392157" d="M 84.5 98 L 87 98.5 L 84.5 99 L 84.5 98 Z " /><path fill="rgb(117,73,187)" stroke="rgb(117,73,187)" stroke-width="1" opacity="0.4627450980392157" d="M 71.5 99 L 83 99.5 L 71.5 100 L 71.5 99 Z " /><path fill="rgb(117,74,188)" stroke="rgb(117,74,188)" stroke-width="1" opacity="0.996078431372549" d="M 48.5 0 L 51 0.5 L 48.5 1 L 48.5 0 Z " /><path fill="rgb(117,74,188)" stroke="rgb(117,74,188)" stroke-width="1" opacity="0.996078431372549" d="M 52.5 0 L 55 0.5 L 52.5 1 L 52.5 0 Z " /><path fill="rgb(117,74,188)" stroke="rgb(117,74,188)" stroke-width="1" opacity="0.996078431372549" d="M 33.5 7 L 30.5 11 L 33.5 7 Z " /><path fill="rgb(117,74,188)" stroke="rgb(117,74,188)" stroke-width="1" opacity="0.996078431372549" d="M 62.5 9 L 65.5 13 L 62.5 9 Z " /><path fill="rgb(117,74,188)" stroke="rgb(117,74,188)" stroke-width="1" opacity="0.996078431372549" d="M 38.5 10 L 35.5 14 L 38.5 10 Z " /><path fill="rgb(117,74,188)" stroke="rgb(117,74,188)" stroke-width="1" opacity="0.996078431372549" d="M 71.5 11 L 72.5 13 L 71.5 11 Z " /><path fill="rgb(117,74,188)" stroke="rgb(117,74,188)" stroke-width="1" opacity="0.996078431372549" d="M 33.5 16 L 32.5 18 L 33.5 16 Z " /><path fill="rgb(117,74,188)" stroke="rgb(117,74,188)" stroke-width="1" opacity="0.996078431372549" d="M 21.5 34 L 22 37.5 L 21 37.5 L 21.5 34 Z " /><path fill="rgb(117,74,188)" stroke="rgb(117,74,188)" stroke-width="1" opacity="0.996078431372549" d="M 21.5 41 L 22 43.5 L 21 43.5 L 21.5 41 Z " /><path fill="rgb(117,74,188)" stroke="rgb(117,74,188)" stroke-width="1" opacity="0.996078431372549" d="M 86.5 44 L 87.5 46 L 86.5 44 Z " /><path fill="rgb(117,74,188)" stroke="rgb(117,74,188)" stroke-width="1" opacity="0.996078431372549" d="M 14.5 47 L 16 47.5 L 13.5 49 L 14.5 47 Z " /><path fill="rgb(117,74,188)" stroke="rgb(117,74,188)" stroke-width="1" opacity="0.996078431372549" d="M 91.5 48 L 94.5 52 L 91.5 48 Z " /><path fill="rgb(117,74,188)" stroke="rgb(117,74,188)" stroke-width="1" opacity="0.996078431372549" d="M 83.5 49 L 84.5 51 L 83.5 49 Z " /><path fill="rgb(117,74,188)" stroke="rgb(117,74,188)" stroke-width="1" opacity="0.996078431372549" d="M 87.5 52 L 91.5 57 L 87.5 52 Z " /><path fill="rgb(117,74,188)" stroke="rgb(117,74,188)" stroke-width="1" opacity="0.996078431372549" d="M 7.5 54 L 6.5 56 L 7.5 54 Z " /><path fill="rgb(117,74,188)" stroke="rgb(117,74,188)" stroke-width="1" opacity="0.996078431372549" d="M 97.5 55 L 98.5 57 L 97.5 55 Z " /><path fill="rgb(117,74,188)" stroke="rgb(117,74,188)" stroke-width="1" opacity="0.996078431372549" d="M 67.5 56 L 66.5 58 L 67.5 56 Z " /><path fill="rgb(117,74,188)" stroke="rgb(117,74,188)" stroke-width="1" opacity="0.996078431372549" d="M 76.5 56 L 77.5 58 L 76.5 56 Z " /><path fill="rgb(117,74,188)" stroke="rgb(117,74,188)" stroke-width="1" opacity="0.996078431372549" d="M 11.5 58 L 10.5 60 L 11.5 58 Z " /><path fill="rgb(117,74,188)" stroke="rgb(117,74,188)" stroke-width="1" opacity="0.996078431372549" d="M 34.5 64 L 37 64.5 L 34.5 65 L 34.5 64 Z " /><path fill="rgb(117,74,188)" stroke="rgb(117,74,188)" stroke-width="1" opacity="0.996078431372549" d="M 77.5 66 L 76.5 68 L 77.5 66 Z " /><path fill="rgb(117,74,188)" stroke="rgb(117,74,188)" stroke-width="1" opacity="0.996078431372549" d="M 5.5 71 L 6 75.5 L 5 75.5 L 5.5 71 Z " /><path fill="rgb(117,74,188)" stroke="rgb(117,74,188)" stroke-width="1" opacity="0.996078431372549" d="M 104.5 72 L 105 77.5 L 104 77.5 L 104.5 72 Z " /><path fill="rgb(117,74,188)" stroke="rgb(117,74,188)" stroke-width="1" opacity="0.996078431372549" d="M 62.5 74 L 61.5 76 L 62.5 74 Z " /><path fill="rgb(117,74,188)" stroke="rgb(117,74,188)" stroke-width="1" opacity="0.996078431372549" d="M 0.5 75 L 1 77.5 L 0 77.5 L 0.5 75 Z " /><path fill="rgb(117,74,188)" stroke="rgb(117,74,188)" stroke-width="1" opacity="0.996078431372549" d="M 56.5 80 L 54.5 83 L 56.5 80 Z " /><path fill="rgb(117,74,188)" stroke="rgb(117,74,188)" stroke-width="1" opacity="0.996078431372549" d="M 64.5 81 L 60.5 86 L 64.5 81 Z " /><path fill="rgb(117,74,188)" stroke="rgb(117,74,188)" stroke-width="1" opacity="0.996078431372549" d="M 9.5 85 L 12.5 89 L 9.5 85 Z " /><path fill="rgb(117,74,188)" stroke="rgb(117,74,188)" stroke-width="1" opacity="0.996078431372549" d="M 95.5 85 L 94.5 87 L 95.5 85 Z " /><path fill="rgb(117,74,188)" stroke="rgb(117,74,188)" stroke-width="1" opacity="0.996078431372549" d="M 4.5 88 L 9.5 94 L 4.5 88 Z " /><path fill="rgb(117,74,188)" stroke="rgb(117,74,188)" stroke-width="1" opacity="0.996078431372549" d="M 92.5 88 L 90.5 91 L 92.5 88 Z " /><path fill="rgb(117,74,188)" stroke="rgb(117,74,188)" stroke-width="1" opacity="0.996078431372549" d="M 99.5 89 L 96.5 93 L 99.5 89 Z " /><path fill="rgb(117,74,188)" stroke="rgb(117,74,188)" stroke-width="1" opacity="0.996078431372549" d="M 62.5 93 L 60.5 96 L 62.5 93 Z " /><path fill="rgb(118,74,188)" stroke="rgb(118,74,188)" stroke-width="1" opacity="1" d="M 51.5 0 L 62.5 3 L 71 10.5 L 77 21.5 L 79 32 L 73 31 Q 71.7 16.8 62.5 9 L 56.5 6 L 48.5 6 Q 39.5 7.5 35 13.5 L 28 27.5 L 27 44.5 L 30 56.5 L 34 65 L 41 66 L 43 69.5 L 43 73.5 L 40.5 77 L 35.5 79 L 30 75.5 L 29 69.5 L 30 67.5 L 23 52.5 L 21 38.5 L 22 37.5 L 22 29.5 L 25 19.5 Q 29 10.5 36.5 5 L 42.5 2 L 51.5 0 Z " /><path fill="rgb(118,74,188)" stroke="rgb(118,74,188)" stroke-width="1" opacity="1" d="M 43.5 31 L 51 33 L 51.5 35 L 60.5 35 L 70.5 37 L 82.5 42 L 97 54.5 L 104 68.5 L 104 81.5 Q 101.1 89.6 94.5 94 L 82.5 99 L 71.5 99 L 61 95.5 L 65.5 91 L 66.5 92 L 74.5 94 L 82.5 94 Q 91.8 92.3 96 85.5 Q 100.5 81 99 70.5 Q 95.9 58.6 87.5 52 Q 79.7 45.3 68.5 42 L 51 41 L 49.5 44 L 43.5 45 L 39 41.5 L 38 37.5 L 41.5 32 L 43.5 31 Z " /><path fill="rgb(118,74,188)" stroke="rgb(118,74,188)" stroke-width="1" opacity="1" d="M 14.5 48 Q 17.5 47.1 16 51.5 L 17 52.5 L 10 59.5 Q 5.2 65.2 5 75.5 Q 6.5 84.5 12.5 89 Q 19.2 94.8 33.5 93 Q 52.5 88 63 74.5 L 67 66.5 Q 63.8 65.3 65 59.5 Q 67.1 55.1 73.5 55 L 78 58.5 L 79 63.5 L 74.5 69 Q 71.2 67.9 72 70.5 Q 66.6 81.1 57.5 88 Q 45.8 97.8 25.5 99 Q 24.3 96.8 19.5 98 L 10.5 94 L 4 87.5 L 1 80.5 L 0 72.5 Q 2.3 71.2 1 66.5 L 5 57.5 L 12.5 49 L 14.5 48 Z " /></svg>