<svg viewBox="0 0 21 21" xmlns="http://www.w3.org/2000/svg" xmlns:xlink="http://www.w3.org/1999/xlink" width="21.000000" height="21.000000" fill="none">
	<rect id="instagram-svg" width="21.000000" height="21.000000" x="0.000000" y="0.000000" fill="rgb(255,255,255)" fill-opacity="0" />
	<path id="Vector" d="M15.6515 2.1001L5.34841 2.1001C3.55685 2.1001 2.09998 3.5564 2.09998 5.34727L2.09998 8.77811L2.09998 15.6529C2.09998 17.4438 3.55685 18.9001 5.34841 18.9001L15.6515 18.9001C17.4431 18.9001 18.9 17.4438 18.9 15.6529L18.9 8.77155L18.9 5.34071C18.8934 3.5564 17.4365 2.1001 15.6515 2.1001ZM16.5834 4.03528L16.9575 4.03528L16.9575 4.40264L16.9575 6.88229L14.1159 6.88885L14.1094 4.04184L16.5834 4.03528ZM8.0981 8.77155C8.63622 8.03028 9.50904 7.53829 10.4934 7.53829C11.4778 7.53829 12.3506 8.02372 12.8887 8.77155C13.2431 9.25699 13.4465 9.85394 13.4465 10.4968C13.4465 12.1237 12.1209 13.4553 10.4869 13.4553C8.85279 13.4553 7.54029 12.1237 7.54029 10.4968C7.54029 9.85394 7.75029 9.25699 8.0981 8.77155ZM17.2593 15.6464C17.2593 16.532 16.5375 17.2536 15.6515 17.2536L5.34841 17.2536C4.46248 17.2536 3.7406 16.532 3.7406 15.6464L3.7406 8.77155L6.24748 8.77155C6.03091 9.30291 5.90623 9.88674 5.90623 10.4968C5.90623 13.029 7.96685 15.0888 10.5 15.0888C13.0331 15.0888 15.0937 13.029 15.0937 10.4968C15.0937 9.88674 14.969 9.30291 14.7525 8.77155L17.2593 8.77155L17.2593 15.6464Z" fill="rgb(117,114,213)" fill-rule="nonzero" />
</svg>
