<svg viewBox="0 0 21 21" xmlns="http://www.w3.org/2000/svg" xmlns:xlink="http://www.w3.org/1999/xlink" width="21.000000" height="21.000000" fill="none">
	<rect id="linkedin-svg" width="20.999998" height="20.999998" x="0.000000" y="0.000244" fill="rgb(255,255,255)" fill-opacity="0" />
	<g id="Group">
		<path id="Vector" d="M5.80637 7.88647L2.53296 7.88647L2.53296 18.3627L5.80637 18.3627L5.80637 7.88647Z" fill="rgb(117,114,213)" fill-rule="evenodd" />
		<path id="Vector" d="M4.10076 2.94019C2.89373 2.94019 2.09998 3.72082 2.09998 4.75729C2.09998 5.77408 2.86749 6.57439 4.05484 6.57439L4.08108 6.57439C5.31434 6.57439 6.08186 5.76752 6.0753 4.75729C6.04906 3.72082 5.30778 2.94019 4.10076 2.94019Z" fill="rgb(117,114,213)" fill-rule="nonzero" />
		<path id="Vector" d="M14.7476 7.78784C12.8714 7.78784 11.6972 8.81119 11.4807 9.53279L11.4807 7.88624L7.8006 7.88624C7.84652 8.75871 7.8006 18.3625 7.8006 18.3625L11.4807 18.3625L11.4807 12.7012C11.4807 12.3798 11.4676 12.0649 11.5594 11.8419C11.8087 11.2121 12.3532 10.5561 13.3306 10.5561C14.6098 10.5561 15.1871 11.527 15.1871 12.944L15.1871 18.3625L18.9 18.3625L18.9 12.5372C18.9 9.29663 17.0764 7.78784 14.7476 7.78784Z" fill="rgb(117,114,213)" fill-rule="nonzero" />
	</g>
</svg>
