<svg
  xmlns="http://www.w3.org/2000/svg"
  xmlns:xlink="http://www.w3.org/1999/xlink"
  width="18.000000"
  viewBox="0 0 18 18"
  height="18.000000"
  fill="none"
>
  <rect
    id="Icons/mail"
    width="18.000000"
    height="18.000000"
    x="0.000000"
    y="0.000000"
    fill="rgb(255,255,255)"
    fill-opacity="0"
  />
  <path
    id="Vector"
    d="M0 0L18 0L18 18L0 18L0 0Z"
    fill-rule="nonzero"
  />
  <path
    id="Vector"
    d="M2.25 2.25L15.75 2.25C15.9489 2.25 16.1397 2.32902 16.2803 2.46967C16.421 2.61032 16.5 2.80109 16.5 3L16.5 15C16.5 15.1989 16.421 15.3897 16.2803 15.5303C16.1397 15.671 15.9489 15.75 15.75 15.75L2.25 15.75C2.05109 15.75 1.86032 15.671 1.71967 15.5303C1.57902 15.3897 1.5 15.1989 1.5 15L1.5 3C1.5 2.80109 1.57902 2.61032 1.71967 2.46967C1.86032 2.32902 2.05109 2.25 2.25 2.25ZM9.045 8.76225L4.236 4.6785L3.26475 5.8215L9.05475 10.7378L14.7405 5.81775L13.7595 4.683L9.04575 8.76225L9.045 8.76225Z"
    fill="rgb(43,43,43)"
    fill-rule="nonzero"
  />
</svg>