<svg
  viewBox="0 0 120 120"
  width="120.000000"
  height="120.000000"
>
  <g id="html">
    <rect
      id="vscode-icons:file-type-html"
      width="120.000000"
      height="120.000000"
      x="0.000000"
      y="0.000000"
      fill="rgb(255,255,255)"
      fill-opacity="0"
    />
    <path
      id="Vector"
      d="M22.1325 102.004L13.7063 7.5L106.294 7.5L97.8563 101.989L59.9438 112.5L22.1325 102.004Z"
      fill="rgb(228,79,38)"
      fill-rule="nonzero"
    />
    <path
      id="Vector"
      d="M60 104.468L90.6375 95.9738L97.845 15.2288L60 15.2288L60 104.468Z"
      fill="rgb(241,102,42)"
      fill-rule="nonzero"
    />
    <path
      id="Vector"
      d="M60 50.2763L44.6625 50.2763L43.605 38.4075L60 38.4075L60 26.8163L30.9375 26.8163L31.215 29.9288L34.0612 61.8675L60 61.8675L60 50.2763ZM60 80.3775L59.9475 80.3925L47.04 76.9088L46.215 67.665L34.5788 67.665L36.2025 85.86L59.9475 92.4525L60 92.4375L60 80.3775Z"
      fill="rgb(235,235,235)"
      fill-rule="nonzero"
    />
    <path
      id="Vector"
      d="M59.9587 50.2763L59.9587 61.8675L74.2312 61.8675L72.8887 76.9013L59.9587 80.3888L59.9587 92.4488L83.7225 85.86L83.895 83.9025L86.6175 53.3888L86.9025 50.2763L59.9587 50.2763ZM59.9587 26.8163L59.9587 38.4075L87.9562 38.4075L88.1887 35.805L88.7175 29.9288L88.995 26.8163L59.9587 26.8163Z"
      fill="rgb(255,255,255)"
      fill-rule="nonzero"
    />
  </g>

  <g id="css">
    <rect
      id="vscode-icons:file-type-css"
      width="120.000000"
      height="119.000000"
      x="0.000000"
      y="0.000000"
      fill="rgb(255,255,255)"
      fill-opacity="0"
    />
    <path
      id="Vector"
      d="M22.1325 101.154L13.71 7.4375L106.29 7.4375L97.8562 101.139L59.9437 111.562L22.1325 101.154Z"
      fill="rgb(21,114,182)"
      fill-rule="nonzero"
    />
    <path
      id="Vector"
      d="M60 103.597L90.6375 95.1739L97.845 15.1018L60 15.1018L60 103.597Z"
      fill="rgb(51,169,220)"
      fill-rule="nonzero"
    />
    <path
      id="Vector"
      d="M60 49.054L75.3375 49.054L76.395 37.2842L60 37.2842L60 25.7896L89.0625 25.7896L88.785 28.8724L85.9388 60.5487L60 60.5487L60 49.054Z"
      fill="rgb(255,255,255)"
      fill-rule="nonzero"
    />
    <path
      id="Vector"
      d="M60.0713 78.9045L60.0188 78.9193L47.1113 75.4609L46.2863 66.2942L34.65 66.2942L36.2738 84.3413L60.015 90.8788L60.0713 90.864L60.0713 78.9045Z"
      fill="rgb(235,235,235)"
      fill-rule="nonzero"
    />
    <path
      id="Vector"
      d="M74.3513 60.0615L72.9563 75.4534L60.03 78.9119L60.03 90.8714L83.79 84.3412L83.9663 82.4001L85.98 60.0615L74.3513 60.0615Z"
      fill="rgb(255,255,255)"
      fill-rule="nonzero"
    />
    <path
      id="Vector"
      d="M60.0413 25.7896L60.0413 37.2842L32.0438 37.2842L31.8113 34.6997L31.2825 28.8724L31.005 25.7896L60.0413 25.7896ZM60 49.054L60 60.5487L47.2538 60.5487L47.0213 57.9642L46.4963 52.1369L46.2188 49.054L60 49.054Z"
      fill="rgb(235,235,235)"
      fill-rule="nonzero"
    />
  </g>

  <g id="js">
    <rect
      id="vscode-icons:file-type-vscode"
      width="112.000000"
      height="112.000000"
      x="0.000000"
      y="0.000000"
      fill="rgb(255,255,255)"
      fill-opacity="0"
    />
    <path
      id="Vector"
      d="M101.535 17.605L81.354 7.88899C80.2143 7.33948 78.9319 7.15814 77.6845 7.37011C76.4372 7.58208 75.2867 8.17686 74.3925 9.07199L8.32998 69.3C7.52845 70.0273 7.04865 71.0432 6.99614 72.1243C6.94363 73.2053 7.32271 74.2629 8.04998 75.0645C8.13748 75.159 8.22498 75.25 8.31948 75.334L13.713 80.234C14.4178 80.8754 15.3249 81.2497 16.277 81.2919C17.229 81.3341 18.1657 81.0416 18.9245 80.465L98.497 20.125C99.098 19.6689 99.8144 19.3897 100.566 19.3186C101.317 19.2476 102.073 19.3877 102.749 19.7231C103.424 20.0585 103.993 20.5758 104.391 21.217C104.789 21.8581 105 22.5975 105 23.352L105 23.1175C105 21.9656 104.675 20.8372 104.062 19.862C103.449 18.8868 102.573 18.1045 101.535 17.605Z"
      fill="rgb(0,101,169)"
      fill-rule="nonzero"
    />
    <path
      id="Vector"
      d="M101.535 94.395L81.354 104.115C80.214 104.662 78.9319 104.843 77.6849 104.631C76.4379 104.419 75.2875 103.825 74.3925 102.932L8.32998 42.7C7.52845 41.9727 7.04865 40.9568 6.99614 39.8758C6.94363 38.7947 7.32271 37.7371 8.04998 36.9355C8.13748 36.841 8.22498 36.75 8.31948 36.666L13.713 31.766C14.4185 31.1219 15.3277 30.7459 16.2821 30.7037C17.2365 30.6615 18.1754 30.9557 18.935 31.535L98.497 91.875C99.098 92.3311 99.8144 92.6104 100.566 92.6814C101.317 92.7524 102.073 92.6123 102.749 92.2769C103.424 91.9415 103.993 91.4242 104.391 90.783C104.789 90.1419 105 89.4025 105 88.648L105 88.9C104.996 90.0488 104.669 91.1733 104.057 92.1451C103.444 93.1168 102.57 93.8965 101.535 94.395Z"
      fill="rgb(0,122,204)"
      fill-rule="nonzero"
    />
    <path
      id="Vector"
      d="M81.354 104.115C80.214 104.662 78.932 104.843 77.685 104.631C76.438 104.419 75.2876 103.825 74.3925 102.932C74.8952 103.428 75.533 103.764 76.2261 103.899C76.9193 104.035 77.6369 103.962 78.289 103.691C78.9412 103.42 79.4988 102.963 79.8921 102.376C80.2855 101.79 80.4969 101.1 80.5 100.394L80.5 11.606C80.5006 10.8965 80.2906 10.2028 79.8966 9.61281C79.5026 9.02277 78.9424 8.56294 78.2868 8.29158C77.6313 8.02022 76.91 7.94953 76.2142 8.08846C75.5184 8.2274 74.8796 8.56971 74.3785 9.07203C75.2729 8.17723 76.4232 7.58242 77.6703 7.36986C78.9174 7.1573 80.1998 7.3375 81.34 7.88554L101.518 17.5875C102.559 18.0845 103.438 18.8658 104.054 19.8412C104.671 20.8166 104.998 21.9463 105 23.1L105 88.9C105 90.0528 104.675 91.1823 104.061 92.1582C103.448 93.1341 102.571 93.9168 101.532 94.416L81.354 104.115Z"
      fill="rgb(31,156,240)"
      fill-rule="nonzero"
    />
  </g>
</svg>